<?xml version="1.0" standalone="no"?>
<!DOCTYPE svg PUBLIC "-//W3C//DTD SVG 20010904//EN"
 "http://www.w3.org/TR/2001/REC-SVG-20010904/DTD/svg10.dtd">
<svg version="1.0" xmlns="http://www.w3.org/2000/svg"
 width="600.000000pt" height="582.000000pt" viewBox="0 0 600.000000 582.000000"
 preserveAspectRatio="xMidYMid meet">

<g transform="translate(0.000000,582.000000) scale(0.100000,-0.100000)"
fill="#000000" stroke="none">
<path d="M2900 5813 c0 -5 15 -15 33 -23 l32 -15 3 -203 c3 -210 -2 -242 -38
-242 -10 0 -22 -4 -25 -10 -4 -6 27 -10 87 -9 89 1 92 1 61 15 -19 8 -35 24
-38 36 -3 13 -4 96 -3 186 l3 164 165 -206 c91 -113 168 -206 173 -206 4 0 7
102 7 228 0 243 5 272 51 272 10 0 19 5 19 10 0 6 -37 10 -90 10 -93 0 -113
-9 -58 -25 29 -9 34 -15 41 -58 4 -26 6 -103 5 -170 l-3 -122 -149 188 -149
187 -63 0 c-35 0 -64 -3 -64 -7z"/>
<path d="M3120 5263 c-1 -32 -36 -247 -78 -478 l-77 -419 -112 -22 c-215 -42
-412 -124 -594 -246 -114 -76 -305 -264 -371 -364 -113 -170 -184 -341 -220
-526 -12 -62 -23 -114 -24 -116 -1 -2 -204 -40 -452 -85 -247 -45 -451 -86
-453 -92 -2 -5 16 -11 41 -13 36 -2 767 -129 847 -147 17 -4 24 -16 33 -63 72
-369 303 -717 613 -922 99 -67 275 -155 373 -188 68 -23 248 -62 287 -62 14 0
29 -6 34 -12 4 -7 44 -193 88 -413 67 -330 84 -400 98 -403 15 -3 17 7 17 80
1 62 18 168 68 413 l67 330 122 22 c315 55 576 194 808 427 120 121 184 209
250 341 63 128 88 201 116 333 10 52 20 97 22 98 1 2 210 40 465 86 254 45
462 86 462 90 0 4 -21 10 -47 13 -49 7 -726 127 -820 146 -50 10 -53 12 -58
47 -43 257 -98 406 -212 574 -114 168 -247 308 -379 399 -171 118 -461 236
-622 255 -33 3 -64 9 -70 13 -9 5 -182 912 -182 951 0 5 -9 10 -20 10 -18 0
-20 -7 -20 -57z m205 -1058 c85 -473 158 -873 161 -888 5 -26 -8 -42 -152
-188 -87 -87 -162 -159 -166 -159 -4 0 -8 476 -7 1058 0 581 2 1053 4 1047 2
-5 74 -397 160 -870z m-465 -422 c-44 -246 -83 -452 -85 -458 -3 -5 -4 27 -3
73 l2 82 -203 100 c-112 55 -205 100 -208 100 -3 0 10 -17 28 -38 19 -21 70
-111 114 -199 l79 -162 41 -3 c25 -2 -122 -33 -395 -82 -239 -44 -442 -81
-452 -84 -15 -3 -15 2 -3 65 63 329 245 612 524 813 93 68 279 162 384 196
100 32 251 63 255 53 2 -4 -33 -209 -78 -456z m659 426 c141 -38 369 -147 480
-231 169 -127 343 -345 421 -527 38 -87 74 -216 86 -304 l7 -47 -34 7 c-19 4
-223 41 -454 84 -231 42 -405 78 -387 78 18 1 42 6 53 11 11 6 63 99 120 212
85 169 96 197 72 177 -16 -13 -106 -62 -201 -109 -166 -81 -172 -85 -173 -115
0 -16 -2 -25 -5 -20 -2 6 -37 192 -77 413 l-74 404 46 -7 c25 -3 79 -15 120
-26z m-596 -1097 l159 -159 -604 -6 c-332 -4 -821 -9 -1088 -12 l-485 -5 915
169 c503 93 922 170 930 170 8 1 86 -70 173 -157z m19 -189 c-95 -2 -248 -2
-340 0 -92 1 -14 3 173 3 187 0 262 -2 167 -3z m1817 -10 c347 -3 628 -9 624
-13 -8 -7 -1791 -328 -1844 -333 -21 -2 -57 28 -198 165 -94 93 -171 172 -171
178 0 12 650 13 1589 3z m-1619 -1020 c0 -548 -2 -994 -5 -991 -7 7 -325 1597
-325 1626 0 16 48 74 161 192 89 94 163 170 165 170 2 0 4 -449 4 -997z m-875
747 c248 -44 457 -82 465 -84 8 -3 -23 -4 -69 -4 l-84 1 -98 -194 c-121 -238
-119 -232 -72 -188 22 21 101 66 188 108 82 40 153 78 157 84 4 7 8 48 8 91 0
44 2 77 5 74 3 -3 44 -196 90 -429 47 -233 87 -434 90 -447 6 -23 4 -23 -42
-16 -218 31 -469 142 -654 290 -225 179 -404 454 -463 711 -21 92 -20 94 7 88
12 -3 225 -41 472 -85z m2222 -2 c-31 -147 -109 -324 -195 -440 -101 -136
-274 -294 -418 -381 -60 -36 -233 -113 -307 -137 -52 -16 -237 -49 -237 -41 0
22 163 820 170 836 7 14 9 0 7 -51 l-3 -71 203 -102 c112 -55 206 -101 209
-101 4 0 -9 17 -27 38 -19 21 -70 111 -114 200 l-80 162 -50 1 c-31 0 121 32
400 83 248 45 452 81 453 80 2 -1 -3 -36 -11 -76z"/>
<path d="M5550 3151 c0 -5 10 -11 22 -13 41 -6 48 -40 47 -233 -1 -99 -4 -191
-8 -204 -3 -12 -20 -29 -36 -36 -26 -12 -2 -13 181 -14 l212 -1 11 48 c7 26
14 55 17 65 9 29 -13 19 -35 -17 -31 -50 -74 -66 -175 -66 l-85 0 -6 33 c-3
17 -5 66 -3 107 l3 75 70 3 c92 4 111 -2 123 -38 20 -55 32 -34 32 55 0 86
-11 109 -30 61 -14 -37 -43 -47 -123 -44 l-72 3 -3 77 c-4 112 1 118 98 118
97 0 128 -11 141 -50 17 -46 29 -36 29 25 l0 55 -205 0 c-120 0 -205 -4 -205
-9z"/>
<path d="M14 3085 c11 -8 23 -15 27 -15 10 0 39 -72 115 -285 37 -104 70 -194
74 -198 4 -5 27 45 50 110 24 65 51 138 61 163 l17 45 15 -35 c8 -19 36 -93
62 -163 26 -70 51 -124 55 -120 4 4 22 53 40 108 76 231 129 360 157 382 l28
23 -78 0 c-50 0 -76 -4 -72 -10 3 -5 15 -10 26 -10 32 0 24 -52 -33 -204 l-51
-139 -59 149 c-32 82 -58 158 -58 169 0 14 10 25 28 32 22 9 8 11 -78 12
l-105 1 31 -19 c20 -12 38 -37 53 -73 l22 -54 -36 -95 c-20 -52 -40 -97 -44
-102 -7 -7 -121 280 -121 306 0 7 12 18 28 24 22 9 10 11 -73 12 -90 0 -98 -1
-81 -14z"/>
<path d="M3065 601 c-65 -27 -104 -109 -85 -180 13 -51 40 -83 109 -133 87
-63 120 -99 127 -135 13 -72 -43 -131 -112 -118 -46 8 -86 44 -114 104 -27 58
-45 67 -37 19 4 -18 9 -61 13 -95 7 -65 13 -73 33 -49 11 13 19 13 59 0 107
-32 178 -7 220 77 18 36 21 55 16 87 -10 63 -37 97 -134 168 -122 89 -149 146
-95 199 53 54 145 14 181 -80 9 -25 21 -45 26 -45 9 0 3 115 -8 170 -5 24 -6
24 -19 6 -14 -18 -17 -18 -73 -2 -64 18 -78 19 -107 7z"/>
</g>
</svg>
